<?xml version="1.0" standalone="no"?>
<!DOCTYPE svg PUBLIC "-//W3C//DTD SVG 20010904//EN"
 "http://www.w3.org/TR/2001/REC-SVG-20010904/DTD/svg10.dtd">
<svg version="1.0" xmlns="http://www.w3.org/2000/svg"
 width="1472.000000pt" height="832.000000pt" viewBox="0 0 1472.000000 832.000000"
 preserveAspectRatio="xMidYMid meet">

<g transform="translate(0.000000,832.000000) scale(0.100000,-0.100000)"
fill="#000000" stroke="none">
<path d="M9245 5375 c-77 -27 -139 -128 -116 -187 38 -101 155 -146 246 -95
43 24 85 91 85 137 0 40 -42 113 -75 132 -45 25 -95 30 -140 13z"/>
<path d="M6711 5344 c-26 -34 -26 -54 0 -88 18 -22 28 -26 67 -25 42 2 80 -14
347 -148 270 -136 301 -154 312 -182 33 -89 163 -40 139 52 -7 29 -44 47 -95
47 -28 0 -111 36 -339 150 -166 83 -302 155 -302 161 0 5 -11 21 -25 34 -33
34 -77 33 -104 -1z"/>
<path d="M8217 5187 c-9 -24 -83 -57 -127 -57 -19 0 -50 4 -68 9 l-32 10 2
-877 3 -877 122 -3 123 -3 -1 868 c0 814 -4 975 -22 930z"/>
<path d="M8586 4944 c-7 -32 -68 -240 -82 -278 -4 -9 5 -25 22 -41 22 -21 30
-23 42 -13 12 11 150 186 211 269 12 17 11 19 -15 19 -51 0 -99 19 -129 50
-16 16 -32 30 -36 30 -4 0 -10 -16 -13 -36z"/>
<path d="M5820 4864 c-146 -25 -226 -61 -291 -131 -79 -86 -118 -214 -100
-330 27 -177 123 -265 430 -394 172 -73 214 -99 247 -154 29 -50 30 -86 5
-141 -38 -84 -125 -121 -263 -111 -103 7 -189 48 -255 121 l-46 51 -18 -25
c-129 -178 -131 -181 -112 -202 28 -31 129 -97 190 -124 116 -52 316 -70 429
-40 265 70 402 334 300 577 -6 13 15 24 108 60 119 45 130 56 103 93 -12 16
-20 15 -122 -23 -124 -46 -137 -48 -156 -24 -36 44 -156 107 -374 199 -174 73
-225 119 -225 206 0 98 72 148 213 148 108 0 172 -23 245 -86 29 -26 54 -45
56 -43 20 22 146 204 146 210 0 29 -162 116 -266 143 -62 16 -201 28 -244 20z"/>
<path d="M7060 4859 c-137 -21 -259 -103 -314 -214 -70 -141 -50 -326 48 -442
39 -47 256 -167 357 -198 50 -16 165 -77 192 -103 85 -80 74 -201 -25 -265
-49 -31 -105 -41 -203 -35 -94 6 -172 43 -242 115 -29 29 -54 53 -57 53 -2 0
-37 -46 -77 -102 l-73 -102 50 -43 c60 -54 188 -117 274 -138 81 -18 258 -19
326 -1 120 32 235 120 286 219 48 95 57 239 21 330 -9 21 -14 39 -12 41 2 2
56 23 119 46 63 23 116 43 118 45 5 5 -21 55 -29 55 -4 0 -60 -18 -125 -39
l-117 -40 -59 49 c-62 52 -151 98 -328 170 -118 48 -202 98 -224 132 -47 73
-16 166 69 208 41 21 64 25 130 24 96 -1 162 -26 243 -92 29 -23 57 -40 62
-37 17 10 140 188 140 201 0 30 -166 121 -272 148 -78 20 -200 27 -278 15z"/>
<path d="M8917 4708 c-329 -328 -576 -591 -569 -603 8 -14 21 -29 415 -442
l260 -273 160 0 159 0 -93 102 c-127 138 -296 315 -456 478 l-134 136 363 368
c200 203 365 373 366 377 2 5 -69 9 -157 9 l-161 0 -153 -152z"/>
<path d="M6793 3004 c-30 -15 -73 -82 -73 -113 0 -28 34 -83 61 -96 31 -16
106 -20 128 -6 26 17 2 28 -52 23 -49 -4 -56 -2 -75 23 -24 30 -28 74 -11 107
16 30 70 49 108 38 34 -9 49 1 27 19 -24 20 -79 23 -113 5z"/>
<path d="M7813 3005 c-66 -28 -91 -115 -51 -175 32 -47 68 -63 120 -55 59 10
99 50 104 105 6 54 -9 86 -55 117 -39 26 -72 28 -118 8z m92 -29 c26 -11 36
-24 46 -56 11 -36 10 -44 -8 -68 -47 -64 -126 -63 -157 2 -9 19 -16 41 -16 49
0 20 39 67 64 77 29 12 32 12 71 -4z"/>
<path d="M8468 3004 c-59 -32 -80 -125 -40 -182 44 -62 145 -62 196 -1 83 99
-42 245 -156 183z m101 -29 c52 -26 60 -96 18 -142 -31 -34 -98 -32 -126 3
-27 34 -27 84 -1 117 18 22 30 28 73 36 4 0 21 -6 36 -14z"/>
<path d="M8854 3006 c-104 -46 -97 -190 11 -226 34 -11 53 -9 108 12 24 9 27
15 27 59 l0 49 -45 0 c-33 0 -45 -4 -45 -15 0 -10 10 -15 30 -15 22 0 30 -5
30 -18 0 -29 -21 -42 -66 -42 -35 0 -47 5 -68 31 -29 34 -31 43 -16 86 15 42
48 57 110 50 59 -7 71 14 19 32 -41 14 -57 13 -95 -3z"/>
<path d="M5425 2903 c-28 -58 -51 -110 -53 -115 -2 -4 9 -8 25 -8 23 0 31 6
40 31 9 23 17 30 28 25 9 -3 30 -6 46 -6 22 0 32 -7 41 -25 7 -17 19 -25 35
-25 30 0 28 7 -34 136 -31 63 -51 94 -62 94 -12 0 -33 -34 -66 -107z m79 11
c10 -26 7 -34 -14 -34 -11 0 -20 4 -20 9 0 17 12 41 20 41 4 0 11 -7 14 -16z"/>
<path d="M5720 2895 l0 -115 25 0 25 0 0 115 0 115 -25 0 -25 0 0 -115z"/>
<path d="M6122 2998 c3 -7 19 -14 36 -16 l32 -3 0 -84 c0 -92 5 -115 26 -115
11 0 14 21 14 100 l0 100 35 0 c24 0 35 5 35 15 0 12 -17 15 -91 15 -68 0 -90
-3 -87 -12z"/>
<path d="M6441 2895 l1 -115 80 0 c59 0 79 3 76 13 -3 7 -27 13 -61 15 l-57 3
0 34 c0 32 3 35 29 35 16 0 36 3 45 6 31 12 16 24 -29 24 -45 0 -45 0 -45 35
l0 35 55 0 c42 0 55 3 55 15 0 12 -15 15 -75 15 l-76 0 2 -115z"/>
<path d="M7064 2997 c-2 -7 -3 -38 0 -68 2 -29 4 -75 5 -101 1 -36 5 -48 16
-48 11 0 15 12 15 50 l0 50 55 0 55 0 0 -50 c0 -38 4 -50 15 -50 12 0 15 19
15 115 0 94 -3 115 -14 115 -11 0 -16 -14 -18 -47 l-3 -48 -52 -3 -53 -3 0 35
c0 56 -22 89 -36 53z"/>
<path d="M7408 2895 c3 -92 6 -115 18 -115 11 0 14 17 14 80 l0 80 76 -80 c43
-44 79 -78 82 -76 2 3 1 55 -3 115 -5 83 -11 111 -21 111 -10 0 -14 -20 -16
-75 l-3 -74 -65 74 c-36 41 -69 74 -75 75 -6 0 -9 -43 -7 -115z"/>
<path d="M8130 2895 l0 -115 76 0 c56 0 75 3 72 13 -3 7 -27 13 -61 15 l-57 3
0 99 c0 82 -3 100 -15 100 -12 0 -15 -19 -15 -115z"/>
<path d="M9180 2951 c35 -52 40 -67 40 -115 0 -47 3 -56 18 -56 14 0 17 11 20
62 2 51 8 68 37 110 41 56 41 58 15 58 -11 0 -20 -4 -20 -8 0 -4 -13 -23 -29
-42 l-28 -34 -27 42 c-17 27 -34 42 -46 42 -19 0 -16 -6 20 -59z"/>
</g>
</svg>
